<svg width="24" height="26" viewBox="0 0 24 26" fill="none" xmlns="http://www.w3.org/2000/svg">
<g filter="url(#filter0_d_50_1173)">
<path d="M18.875 5H16.375V3.4375C16.375 2.74805 15.8145 2.1875 15.125 2.1875H8.875C8.18555 2.1875 7.625 2.74805 7.625 3.4375V5H5.125C4.7793 5 4.5 5.2793 4.5 5.625V6.25C4.5 6.33594 4.57031 6.40625 4.65625 6.40625H5.83594L6.31836 16.6211C6.34961 17.2871 6.90039 17.8125 7.56641 17.8125H16.4336C17.1016 17.8125 17.6504 17.2891 17.6816 16.6211L18.1641 6.40625H19.3438C19.4297 6.40625 19.5 6.33594 19.5 6.25V5.625C19.5 5.2793 19.2207 5 18.875 5ZM14.9688 5H9.03125V3.59375H14.9688V5Z" fill="#FF4949"/>
</g>
<defs>
<filter id="filter0_d_50_1173" x="-2" y="0" width="28" height="28" filterUnits="userSpaceOnUse" color-interpolation-filters="sRGB">
<feFlood flood-opacity="0" result="BackgroundImageFix"/>
<feColorMatrix in="SourceAlpha" type="matrix" values="0 0 0 0 0 0 0 0 0 0 0 0 0 0 0 0 0 0 127 0" result="hardAlpha"/>
<feOffset dy="4"/>
<feGaussianBlur stdDeviation="2"/>
<feComposite in2="hardAlpha" operator="out"/>
<feColorMatrix type="matrix" values="0 0 0 0 0 0 0 0 0 0 0 0 0 0 0 0 0 0 0.25 0"/>
<feBlend mode="normal" in2="BackgroundImageFix" result="effect1_dropShadow_50_1173"/>
<feBlend mode="normal" in="SourceGraphic" in2="effect1_dropShadow_50_1173" result="shape"/>
</filter>
</defs>
</svg>
