<svg width="16" height="16" viewBox="0 0 16 16" fill="none" xmlns="http://www.w3.org/2000/svg">
<path d="M15.1873 14.3281H0.812256C0.466553 14.3281 0.187256 14.6074 0.187256 14.9531V15.6563C0.187256 15.7422 0.257568 15.8125 0.343506 15.8125H15.656C15.7419 15.8125 15.8123 15.7422 15.8123 15.6563V14.9531C15.8123 14.6074 15.533 14.3281 15.1873 14.3281ZM3.03296 12.6875C3.07202 12.6875 3.11108 12.6836 3.15015 12.6777L6.4353 12.1016C6.47437 12.0938 6.51148 12.0762 6.53882 12.0469L14.8181 3.76758C14.8362 3.74951 14.8506 3.72805 14.8604 3.70442C14.8702 3.68079 14.8752 3.65546 14.8752 3.62988C14.8752 3.6043 14.8702 3.57897 14.8604 3.55535C14.8506 3.53172 14.8362 3.51026 14.8181 3.49219L11.572 0.244141C11.5349 0.207031 11.4861 0.1875 11.4333 0.1875C11.3806 0.1875 11.3318 0.207031 11.2947 0.244141L3.01538 8.52344C2.98608 8.55273 2.96851 8.58789 2.96069 8.62695L2.38452 11.9121C2.36552 12.0167 2.37231 12.1244 2.4043 12.2258C2.43629 12.3273 2.49252 12.4193 2.56812 12.4941C2.69702 12.6191 2.85913 12.6875 3.03296 12.6875Z" fill="#FF4949"/>
</svg>
