<svg width="25" height="26" viewBox="0 0 25 26" fill="none" xmlns="http://www.w3.org/2000/svg">
<g filter="url(#filter0_d_179_635)">
<path d="M20.448 4.39062H9.04175C8.95581 4.39062 8.8855 4.46094 8.8855 4.54688V5.64062C8.8855 5.72656 8.95581 5.79688 9.04175 5.79688H20.448C20.5339 5.79688 20.6042 5.72656 20.6042 5.64062V4.54688C20.6042 4.46094 20.5339 4.39062 20.448 4.39062ZM20.448 9.9375H9.04175C8.95581 9.9375 8.8855 10.0078 8.8855 10.0938V11.1875C8.8855 11.2734 8.95581 11.3438 9.04175 11.3438H20.448C20.5339 11.3438 20.6042 11.2734 20.6042 11.1875V10.0938C20.6042 10.0078 20.5339 9.9375 20.448 9.9375ZM20.448 15.4844H9.04175C8.95581 15.4844 8.8855 15.5547 8.8855 15.6406V16.7344C8.8855 16.8203 8.95581 16.8906 9.04175 16.8906H20.448C20.5339 16.8906 20.6042 16.8203 20.6042 16.7344V15.6406C20.6042 15.5547 20.5339 15.4844 20.448 15.4844ZM4.66675 5.09375C4.66675 5.23738 4.69504 5.37961 4.75 5.51231C4.80497 5.64501 4.88554 5.76558 4.9871 5.86715C5.08866 5.96871 5.20924 6.04928 5.34194 6.10424C5.47464 6.15921 5.61686 6.1875 5.7605 6.1875C5.90413 6.1875 6.04636 6.15921 6.17906 6.10424C6.31176 6.04928 6.43233 5.96871 6.5339 5.86715C6.63546 5.76558 6.71603 5.64501 6.77099 5.51231C6.82596 5.37961 6.85425 5.23738 6.85425 5.09375C6.85425 4.95012 6.82596 4.80789 6.77099 4.67519C6.71603 4.54249 6.63546 4.42192 6.5339 4.32035C6.43233 4.21879 6.31176 4.13822 6.17906 4.08326C6.04636 4.02829 5.90413 4 5.7605 4C5.61686 4 5.47464 4.02829 5.34194 4.08326C5.20924 4.13822 5.08866 4.21879 4.9871 4.32035C4.88554 4.42192 4.80497 4.54249 4.75 4.67519C4.69504 4.80789 4.66675 4.95012 4.66675 5.09375ZM4.66675 10.6406C4.66675 10.7843 4.69504 10.9265 4.75 11.0592C4.80497 11.1919 4.88554 11.3125 4.9871 11.414C5.08866 11.5156 5.20924 11.5962 5.34194 11.6511C5.47464 11.7061 5.61686 11.7344 5.7605 11.7344C5.90413 11.7344 6.04636 11.7061 6.17906 11.6511C6.31176 11.5962 6.43233 11.5156 6.5339 11.414C6.63546 11.3125 6.71603 11.1919 6.77099 11.0592C6.82596 10.9265 6.85425 10.7843 6.85425 10.6406C6.85425 10.497 6.82596 10.3548 6.77099 10.2221C6.71603 10.0894 6.63546 9.96879 6.5339 9.86723C6.43233 9.76566 6.31176 9.6851 6.17906 9.63013C6.04636 9.57517 5.90413 9.54688 5.7605 9.54688C5.61686 9.54688 5.47464 9.57517 5.34194 9.63013C5.20924 9.6851 5.08866 9.76566 4.9871 9.86723C4.88554 9.96879 4.80497 10.0894 4.75 10.2221C4.69504 10.3548 4.66675 10.497 4.66675 10.6406ZM4.66675 16.1875C4.66675 16.3311 4.69504 16.4734 4.75 16.6061C4.80497 16.7388 4.88554 16.8593 4.9871 16.9609C5.08866 17.0625 5.20924 17.143 5.34194 17.198C5.47464 17.253 5.61686 17.2812 5.7605 17.2812C5.90413 17.2812 6.04636 17.253 6.17906 17.198C6.31176 17.143 6.43233 17.0625 6.5339 16.9609C6.63546 16.8593 6.71603 16.7388 6.77099 16.6061C6.82596 16.4734 6.85425 16.3311 6.85425 16.1875C6.85425 16.0439 6.82596 15.9016 6.77099 15.7689C6.71603 15.6362 6.63546 15.5157 6.5339 15.4141C6.43233 15.3125 6.31176 15.232 6.17906 15.177C6.04636 15.122 5.90413 15.0938 5.7605 15.0938C5.61686 15.0938 5.47464 15.122 5.34194 15.177C5.20924 15.232 5.08866 15.3125 4.9871 15.4141C4.88554 15.5157 4.80497 15.6362 4.75 15.7689C4.69504 15.9016 4.66675 16.0439 4.66675 16.1875Z" fill="#FF4949"/>
</g>
<defs>
<filter id="filter0_d_179_635" x="-2" y="0" width="28" height="28" filterUnits="userSpaceOnUse" color-interpolation-filters="sRGB">
<feFlood flood-opacity="0" result="BackgroundImageFix"/>
<feColorMatrix in="SourceAlpha" type="matrix" values="0 0 0 0 0 0 0 0 0 0 0 0 0 0 0 0 0 0 127 0" result="hardAlpha"/>
<feOffset dy="4"/>
<feGaussianBlur stdDeviation="2"/>
<feComposite in2="hardAlpha" operator="out"/>
<feColorMatrix type="matrix" values="0 0 0 0 0 0 0 0 0 0 0 0 0 0 0 0 0 0 0.25 0"/>
<feBlend mode="normal" in2="BackgroundImageFix" result="effect1_dropShadow_179_635"/>
<feBlend mode="normal" in="SourceGraphic" in2="effect1_dropShadow_179_635" result="shape"/>
</filter>
</defs>
</svg>
