<svg width="18" height="18" viewBox="0 0 18 18" fill="none" xmlns="http://www.w3.org/2000/svg">
<path d="M6.75 1.5H13.5C14.325 1.5 15 2.175 15 3V15C15 15.825 14.325 16.5 13.5 16.5H6.75C5.925 16.5 5.25 15.825 5.25 15V14.25C5.25 14.0511 5.32902 13.8603 5.46967 13.7197C5.61032 13.579 5.80109 13.5 6 13.5C6.19891 13.5 6.38968 13.579 6.53033 13.7197C6.67098 13.8603 6.75 14.0511 6.75 14.25V15H13.5V3H6.75V3.75C6.75 3.94891 6.67098 4.13968 6.53033 4.28033C6.38968 4.42098 6.19891 4.5 6 4.5C5.80109 4.5 5.61032 4.42098 5.46967 4.28033C5.32902 4.13968 5.25 3.94891 5.25 3.75V3C5.25 2.175 5.925 1.5 6.75 1.5Z" fill="#F6F6F6"/>
<path d="M8.09625 12.2213C8.38875 12.5138 8.86125 12.5138 9.15375 12.2213L11.8447 9.53025C11.9854 9.38961 12.0643 9.19888 12.0643 9C12.0643 8.80113 11.9854 8.6104 11.8447 8.46975L9.15375 5.77875C9.01118 5.6499 8.82456 5.58075 8.63245 5.5856C8.44034 5.59045 8.25744 5.66892 8.12156 5.80481C7.98567 5.94069 7.90719 6.12359 7.90234 6.3157C7.89749 6.50781 7.96664 6.69444 8.0955 6.837L9.5025 8.25H3C2.80109 8.25 2.61032 8.32902 2.46967 8.46967C2.32902 8.61032 2.25 8.80109 2.25 9C2.25 9.19891 2.32902 9.38968 2.46967 9.53033C2.61032 9.67098 2.80109 9.75 3 9.75H9.5025L8.0955 11.163C7.9555 11.3036 7.87696 11.4939 7.8771 11.6923C7.87724 11.8907 7.95605 12.0809 8.09625 12.2213Z" fill="#F6F6F6"/>
</svg>
