<svg width="18" height="18" viewBox="0 0 18 18" fill="none" xmlns="http://www.w3.org/2000/svg">
<path fill-rule="evenodd" clip-rule="evenodd" d="M2.8125 13.5C2.8125 13.3508 2.87176 13.2077 2.97725 13.1023C3.08274 12.9968 3.22582 12.9375 3.375 12.9375H14.625C14.7742 12.9375 14.9173 12.9968 15.0227 13.1023C15.1282 13.2077 15.1875 13.3508 15.1875 13.5C15.1875 13.6492 15.1282 13.7923 15.0227 13.8977C14.9173 14.0032 14.7742 14.0625 14.625 14.0625H3.375C3.22582 14.0625 3.08274 14.0032 2.97725 13.8977C2.87176 13.7923 2.8125 13.6492 2.8125 13.5ZM2.8125 9C2.8125 8.85082 2.87176 8.70774 2.97725 8.60225C3.08274 8.49676 3.22582 8.4375 3.375 8.4375H14.625C14.7742 8.4375 14.9173 8.49676 15.0227 8.60225C15.1282 8.70774 15.1875 8.85082 15.1875 9C15.1875 9.14918 15.1282 9.29226 15.0227 9.39775C14.9173 9.50324 14.7742 9.5625 14.625 9.5625H3.375C3.22582 9.5625 3.08274 9.50324 2.97725 9.39775C2.87176 9.29226 2.8125 9.14918 2.8125 9ZM2.8125 4.5C2.8125 4.35082 2.87176 4.20774 2.97725 4.10225C3.08274 3.99676 3.22582 3.9375 3.375 3.9375H14.625C14.7742 3.9375 14.9173 3.99676 15.0227 4.10225C15.1282 4.20774 15.1875 4.35082 15.1875 4.5C15.1875 4.64918 15.1282 4.79226 15.0227 4.89775C14.9173 5.00324 14.7742 5.0625 14.625 5.0625H3.375C3.22582 5.0625 3.08274 5.00324 2.97725 4.89775C2.87176 4.79226 2.8125 4.64918 2.8125 4.5Z" fill="#F6F6F6"/>
</svg>
